{
  "accessors": [
    {
      "bufferView": 2,
      "componentType": 5126,
      "count": 65532,
      "max": [
        1.000000238418579,
        1.000000238418579,
        1.000000238418579
      ],
      "min": [
        -1.000000238418579,
        -1.000000238418579,
        -1.0000001192092896
      ],
      "type": "VEC3"
    },
    {
      "bufferView": 2,
      "byteOffset": 786384,
      "componentType": 5126,
      "count": 65532,
      "max": [
        1.0,
        1.0,
        1.0
      ],
      "min": [
        -1.0,
        -1.0,
        -1.0
      ],
      "type": "VEC3"
    },
    {
      "bufferView": 1,
      "componentType": 5126,
      "count": 65532,
      "max": [
        0.8274999260902405,
        0.9750000834465027
      ],
      "min": [
        0.125,
        0.030759219080209732
      ],
      "type": "VEC2"
    },
    {
      "bufferView": 0,
      "componentType": 5125,
      "count": 377892,
      "type": "SCALAR"
    },
    {
      "bufferView": 2,
      "byteOffset": 1572768,
      "componentType": 5126,
      "count": 65532,
      "max": [
        1.000000238418579,
        0.960039496421814,
        0.8217852115631104
      ],
      "min": [
        -1.000000238418579,
        -0.8217851519584656,
        -1.000000238418579
      ],
      "type": "VEC3"
    },
    {
      "bufferView": 2,
      "byteOffset": 2359152,
      "componentType": 5126,
      "count": 65532,
      "max": [
        1.0,
        0.6683421730995178,
        0.6683538556098938
      ],
      "min": [
        -1.0,
        -0.6683472990989685,
        -1.0
      ],
      "type": "VEC3"
    },
    {
      "bufferView": 1,
      "byteOffset": 524256,
      "componentType": 5126,
      "count": 65532,
      "max": [
        0.6025001406669617,
        0.7275000214576721
      ],
      "min": [
        0.14999999105930328,
        0.0975000187754631
      ],
      "type": "VEC2"
    },
    {
      "bufferView": 0,
      "byteOffset": 1511568,
      "componentType": 5125,
      "count": 378384,
      "type": "SCALAR"
    },
    {
      "bufferView": 2,
      "byteOffset": 3145536,
      "componentType": 5126,
      "count": 65532,
      "max": [
        1.000000238418579,
        1.000000238418579,
        0.8217852115631104
      ],
      "min": [
        -0.7407581806182861,
        -0.8217851519584656,
        -0.9666667580604553
      ],
      "type": "VEC3"
    },
    {
      "bufferView": 2,
      "byteOffset": 3931920,
      "componentType": 5126,
      "count": 65532,
      "max": [
        1.0,
        1.0,
        0.6683493852615356
      ],
      "min": [
        -0.6683537364006042,
        -0.6683103442192078,
        -0.7072464823722839
      ],
      "type": "VEC3"
    },
    {
      "bufferView": 1,
      "byteOffset": 1048512,
      "componentType": 5126,
      "count": 65532,
      "max": [
        0.6025001406669617,
        0.7275000214576721
      ],
      "min": [
        0.3749999701976776,
        0.2835264205932617
      ],
      "type": "VEC2"
    },
    {
      "bufferView": 0,
      "byteOffset": 3025104,
      "componentType": 5125,
      "count": 382269,
      "type": "SCALAR"
    },
    {
      "bufferView": 2,
      "byteOffset": 4718304,
      "componentType": 5126,
      "count": 65532,
      "max": [
        1.000000238418579,
        1.000000238418579,
        1.000000238418579
      ],
      "min": [
        -0.9666668176651001,
        -1.000000238418579,
        -1.0000001192092896
      ],
      "type": "VEC3"
    },
    {
      "bufferView": 2,
      "byteOffset": 5504688,
      "componentType": 5126,
      "count": 65532,
      "max": [
        1.0,
        1.0,
        1.0
      ],
      "min": [
        -0.7071324586868286,
        -1.0,
        -1.0
      ],
      "type": "VEC3"
    },
    {
      "bufferView": 1,
      "byteOffset": 1572768,
      "componentType": 5126,
      "count": 65532,
      "max": [
        0.8750001192092896,
        1.0000001192092896
      ],
      "min": [
        0.14999999105930328,
        0.27250003814697266
      ],
      "type": "VEC2"
    },
    {
      "bufferView": 0,
      "byteOffset": 4554180,
      "componentType": 5125,
      "count": 371508,
      "type": "SCALAR"
    },
    {
      "bufferView": 2,
      "byteOffset": 6291072,
      "componentType": 5126,
      "count": 65532,
      "max": [
        1.000000238418579,
        1.0000003576278687,
        0.9666667580604553
      ],
      "min": [
        -1.0000003576278687,
        -1.0000001192092896,
        -1.000000238418579
      ],
      "type": "VEC3"
    },
    {
      "bufferView": 2,
      "byteOffset": 7077456,
      "componentType": 5126,
      "count": 65532,
      "max": [
        1.0,
        1.0,
        0.7072495818138123
      ],
      "min": [
        -1.0,
        -1.0,
        -1.0
      ],
      "type": "VEC3"
    },
    {
      "bufferView": 1,
      "byteOffset": 2097024,
      "componentType": 5126,
      "count": 65532,
      "max": [
        0.6250001788139343,
        1.0000001192092896
      ],
      "min": [
        0.14999999105930328,
        0.0
      ],
      "type": "VEC2"
    },
    {
      "bufferView": 0,
      "byteOffset": 6040212,
      "componentType": 5125,
      "count": 370059,
      "type": "SCALAR"
    },
    {
      "bufferView": 2,
      "byteOffset": 7863840,
      "componentType": 5126,
      "count": 18744,
      "max": [
        1.000000238418579,
        1.000000238418579,
        0.4286881685256958
      ],
      "min": [
        -0.7407581806182861,
        -1.000000238418579,
        -1.000000238418579
      ],
      "type": "VEC3"
    },
    {
      "bufferView": 2,
      "byteOffset": 8088768,
      "componentType": 5126,
      "count": 18744,
      "max": [
        1.0,
        1.0,
        0.6658881306648254
      ],
      "min": [
        -0.0006670854636467993,
        -1.0,
        -1.0
      ],
      "type": "VEC3"
    },
    {
      "bufferView": 1,
      "byteOffset": 2621280,
      "componentType": 5126,
      "count": 18744,
      "max": [
        0.5525001287460327,
        0.9275001287460327
      ],
      "min": [
        0.25,
        0.2835264205932617
      ],
      "type": "VEC2"
    },
    {
      "bufferView": 0,
      "byteOffset": 7520448,
      "componentType": 5125,
      "count": 104400,
      "type": "SCALAR"
    },
    {
      "bufferView": 2,
      "byteOffset": 8313696,
      "componentType": 5126,
      "count": 65532,
      "max": [
        0.990586519241333,
        0.990586519241333,
        0.990586519241333
      ],
      "min": [
        -0.990586519241333,
        -0.9909002780914307,
        -0.990586519241333
      ],
      "type": "VEC3"
    },
    {
      "bufferView": 2,
      "byteOffset": 9100080,
      "componentType": 5126,
      "count": 65532,
      "max": [
        1.0,
        1.0,
        1.0
      ],
      "min": [
        -1.0,
        -1.0,
        -1.0
      ],
      "type": "VEC3"
    },
    {
      "bufferView": 1,
      "byteOffset": 2771232,
      "componentType": 5126,
      "count": 65532,
      "max": [
        0.8124138712882996,
        0.9130151867866516
      ],
      "min": [
        0.2875862717628479,
        0.037592072039842606
      ],
      "type": "VEC2"
    },
    {
      "bufferView": 0,
      "byteOffset": 7938048,
      "componentType": 5125,
      "count": 373440,
      "type": "SCALAR"
    },
    {
      "bufferView": 2,
      "byteOffset": 9886464,
      "componentType": 5126,
      "count": 17870,
      "max": [
        0.990586519241333,
        0.9784649610519409,
        0.7102882266044617
      ],
      "min": [
        -0.9755234122276306,
        -0.7102882266044617,
        -0.990586519241333
      ],
      "type": "VEC3"
    },
    {
      "bufferView": 2,
      "byteOffset": 10100904,
      "componentType": 5126,
      "count": 17870,
      "max": [
        1.0,
        0.9146787524223328,
        0.6088266372680664
      ],
      "min": [
        -0.9116999506950378,
        -0.6088218092918396,
        -1.0
      ],
      "type": "VEC3"
    },
    {
      "bufferView": 1,
      "byteOffset": 3295488,
      "componentType": 5126,
      "count": 17870,
      "max": [
        0.5874137878417969,
        0.7124079465866089
      ],
      "min": [
        0.18758626282215118,
        0.12441062182188034
      ],
      "type": "VEC2"
    },
    {
      "bufferView": 0,
      "byteOffset": 9431808,
      "componentType": 5125,
      "count": 99648,
      "type": "SCALAR"
    }
  ],
  "asset": {
    "extras": {
      "author": "NgoHongMinhVN (https://sketchfab.com/ngohongminh1985)",
      "license": "CC-BY-SA-4.0 (http://creativecommons.org/licenses/by-sa/4.0/)",
      "source": "https://sketchfab.com/3d-models/dice-white-classic-59b09646badc406b9eb64125f21da35b",
      "title": "Dice White Classic"
    },
    "generator": "Sketchfab-13.66.0",
    "version": "2.0"
  },
  "bufferViews": [
    {
      "buffer": 0,
      "byteLength": 9830400,
      "name": "floatBufferViews",
      "target": 34963
    },
    {
      "buffer": 0,
      "byteLength": 3438448,
      "byteOffset": 9830400,
      "byteStride": 8,
      "name": "floatBufferViews",
      "target": 34962
    },
    {
      "buffer": 0,
      "byteLength": 10315344,
      "byteOffset": 13268848,
      "byteStride": 12,
      "name": "floatBufferViews",
      "target": 34962
    }
  ],
  "buffers": [
    {
      "byteLength": 23584192,
      "uri": "scene.bin"
    }
  ],
  "images": [
    {
      "uri": "textures/Material_baseColor.jpeg"
    }
  ],
  "materials": [
    {
      "doubleSided": true,
      "name": "Material",
      "pbrMetallicRoughness": {
        "baseColorTexture": {
          "index": 0
        },
        "metallicFactor": 0.0,
        "roughnessFactor": 0.19595917942265426
      }
    },
    {
      "doubleSided": true,
      "name": "Material.001",
      "pbrMetallicRoughness": {
        "baseColorFactor": [
          0.284309,
          0.0165227,
          0.0186599,
          1.0
        ],
        "metallicFactor": 0.0,
        "roughnessFactor": 0.9835406673766904
      }
    }
  ],
  "meshes": [
    {
      "name": "Cube_Material_0",
      "primitives": [
        {
          "attributes": {
            "NORMAL": 1,
            "POSITION": 0,
            "TEXCOORD_0": 2
          },
          "indices": 3,
          "material": 0,
          "mode": 4
        }
      ]
    },
    {
      "name": "Cube_Material_0",
      "primitives": [
        {
          "attributes": {
            "NORMAL": 5,
            "POSITION": 4,
            "TEXCOORD_0": 6
          },
          "indices": 7,
          "material": 0,
          "mode": 4
        }
      ]
    },
    {
      "name": "Cube_Material_0",
      "primitives": [
        {
          "attributes": {
            "NORMAL": 9,
            "POSITION": 8,
            "TEXCOORD_0": 10
          },
          "indices": 11,
          "material": 0,
          "mode": 4
        }
      ]
    },
    {
      "name": "Cube_Material_0",
      "primitives": [
        {
          "attributes": {
            "NORMAL": 13,
            "POSITION": 12,
            "TEXCOORD_0": 14
          },
          "indices": 15,
          "material": 0,
          "mode": 4
        }
      ]
    },
    {
      "name": "Cube_Material_0",
      "primitives": [
        {
          "attributes": {
            "NORMAL": 17,
            "POSITION": 16,
            "TEXCOORD_0": 18
          },
          "indices": 19,
          "material": 0,
          "mode": 4
        }
      ]
    },
    {
      "name": "Cube_Material_0",
      "primitives": [
        {
          "attributes": {
            "NORMAL": 21,
            "POSITION": 20,
            "TEXCOORD_0": 22
          },
          "indices": 23,
          "material": 0,
          "mode": 4
        }
      ]
    },
    {
      "name": "Cube_Material.001_0",
      "primitives": [
        {
          "attributes": {
            "NORMAL": 25,
            "POSITION": 24,
            "TEXCOORD_0": 26
          },
          "indices": 27,
          "material": 1,
          "mode": 4
        }
      ]
    },
    {
      "name": "Cube_Material.001_0",
      "primitives": [
        {
          "attributes": {
            "NORMAL": 29,
            "POSITION": 28,
            "TEXCOORD_0": 30
          },
          "indices": 31,
          "material": 1,
          "mode": 4
        }
      ]
    }
  ],
  "nodes": [
    {
      "children": [
        1
      ],
      "matrix": [
        1.0,
        0.0,
        0.0,
        0.0,
        0.0,
        2.220446049250313e-16,
        -1.0,
        0.0,
        0.0,
        1.0,
        2.220446049250313e-16,
        0.0,
        0.0,
        0.0,
        0.0,
        1.0
      ],
      "name": "Sketchfab_model"
    },
    {
      "children": [
        2
      ],
      "matrix": [
        0.009999999776482582,
        0.0,
        0.0,
        0.0,
        0.0,
        0.0,
        0.009999999776482582,
        0.0,
        0.0,
        -0.009999999776482582,
        0.0,
        0.0,
        0.0,
        0.0,
        0.0,
        1.0
      ],
      "name": "bdce7315841a47059a6ceef6be861747.fbx"
    },
    {
      "children": [
        3,
        12,
        15
      ],
      "name": "RootNode"
    },
    {
      "children": [
        4,
        5,
        6,
        7,
        8,
        9,
        10,
        11
      ],
      "matrix": [
        100.0,
        0.0,
        0.0,
        0.0,
        0.0,
        -1.629206793918314e-05,
        -99.99999999999868,
        0.0,
        0.0,
        99.99999999999868,
        -1.629206793918314e-05,
        0.0,
        0.0,
        0.0,
        0.0,
        1.0
      ],
      "name": "Cube"
    },
    {
      "mesh": 0,
      "name": "Cube_Material_0"
    },
    {
      "mesh": 1,
      "name": "Cube_Material_0"
    },
    {
      "mesh": 2,
      "name": "Cube_Material_0"
    },
    {
      "mesh": 3,
      "name": "Cube_Material_0"
    },
    {
      "mesh": 4,
      "name": "Cube_Material_0"
    },
    {
      "mesh": 5,
      "name": "Cube_Material_0"
    },
    {
      "mesh": 6,
      "name": "Cube_Material.001_0"
    },
    {
      "mesh": 7,
      "name": "Cube_Material.001_0"
    },
    {
      "children": [
        13
      ],
      "matrix": [
        -29.08647719990347,
        -5.518906457566863,
        -95.51711910171437,
        0.0,
        56.63930913109449,
        79.46723428563203,
        -21.83912397841966,
        0.0,
        77.11008775993375,
        -60.45246356562044,
        -19.98834696773717,
        0.0,
        407.6245422363281,
        590.38623046875,
        -100.54539489746094,
        1.0
      ],
      "name": "Light"
    },
    {
      "children": [
        14
      ],
      "matrix": [
        1.0,
        0.0,
        0.0,
        0.0,
        0.0,
        2.220446049250313e-16,
        1.0,
        0.0,
        0.0,
        -1.0,
        2.220446049250313e-16,
        0.0,
        0.0,
        0.0,
        0.0,
        1.0
      ],
      "name": "Object_13"
    },
    {
      "name": "Object_14"
    },
    {
      "children": [
        16
      ],
      "matrix": [
        -65.15581009765468,
        -44.527143038140764,
        -61.41704928909654,
        0.0,
        -32.40135466989878,
        89.5395708958271,
        -30.542085476036902,
        0.0,
        68.59207001076176,
        1.2755314797120858e-05,
        -72.76761921184276,
        0.0,
        735.88916015625,
        495.8309326171875,
        692.5791015625,
        1.0
      ],
      "name": "Camera"
    },
    {
      "name": "Object_16"
    }
  ],
  "samplers": [
    {
      "magFilter": 9729,
      "minFilter": 9987,
      "wrapS": 10497,
      "wrapT": 10497
    }
  ],
  "scene": 0,
  "scenes": [
    {
      "name": "Sketchfab_Scene",
      "nodes": [
        0
      ]
    }
  ],
  "textures": [
    {
      "sampler": 0,
      "source": 0
    }
  ]
}
